<svg width="100%" viewBox="0 0 280 80" role="img" xmlns="http://www.w3.org/2000/svg">
  <title>HopeMap logo</title>
  <defs>
    <clipPath id="L"><rect x="0" y="0" width="19" height="55"/></clipPath>
    <clipPath id="R"><rect x="19" y="0" width="19" height="55"/></clipPath>
  </defs>
  <g transform="translate(18, 8)">
    <path d="M19 0C11.82 0 6 5.82 6 13c0 10 13 31 13 31S32 23 32 13C32 5.82 26.18 0 19 0z" fill="#D4537E" clip-path="url(#L)"/>
    <path d="M19 0C11.82 0 6 5.82 6 13c0 10 13 31 13 31S32 23 32 13C32 5.82 26.18 0 19 0z" fill="#1a0000" clip-path="url(#R)"/>
    <circle cx="19" cy="13" r="7" fill="white"/>
  </g>
  <text x="62" y="53" font-family="sans-serif" font-size="46" font-weight="600" fill="#D4537E">Hope</text>
  <text x="172" y="53" font-family="sans-serif" font-size="46" font-weight="600" fill="#1a0000">Map</text>
</svg>
